Patient4_TMGait_0pt8_01_left_33_EMG.mot
version=1
nRows=29
nColumns=33
inDegrees=no
endheader
time	1LAddLong	2LGlutMax	3LGlutMed	4LIliopsoas	5LSemiMemb	6LBicFemLong	7LRecFem	8LVastMed	9LVastLat	10LGasMed	11LTibAnt	12lTibPost	13LPeroneusLong	14LSol	15LExtDigLong	16LFlexDigLong	17RAddLong	18RGlutMax	19RGlutMed	20RIliopsoas	21RSemiMemb	22RBicFemLong	23RRecFem	24RVastMed	25RVastLat	26RGasMed	27RTibAnt	28RTibPost	29RPeroneusLong	30RSol	31RExtDigLong	32RFlexDigLong
36.34	-0.004425	-0.12466	-0.050201	0.02121	-0.01297	0.000305	0.034485	0.052948	-0.2887	-0.033875	-0.071869	0.000458	-0.001678	0.11627	0.29785	0.003662	0.000153	0.67947	-0.24185	0.091248	-0.041199	-0.023499	0.121	0.3096	0.13794	-0.000153	0.43381	-0.009155	-0.21545	-0.1152	0.002594	-0.003357
36.341	0.000916	-0.098572	-0.061188	0.00824	-0.016022	-0.005646	0.002747	0.010376	-0.28503	-0.001221	-0.13245	0.000153	0.059357	0.083618	0.046082	-0.002289	0.006866	0.61966	0.26443	0.031738	-0.027161	-0.027924	0.25971	0.24643	0.15121	0.000305	0.55573	-0.004425	-0.21118	-0.15579	-0.003204	-0.003052
36.342	0.003967	-0.121	-0.060272	0.010223	-0.013733	-0.010223	0.034485	0.009613	-0.28336	0.037079	-0.042114	0.00473	0.031128	-0.010681	0.076294	0.001221	0.011597	0.52765	0.88699	0.030823	-0.026855	-0.008087	0.22461	0.11765	0.012817	0.002441	0.46829	0.000153	-0.09613	-0.17136	-0.001373	0.001526
36.343	-0.001373	-0.11002	-0.068207	0.00351	-0.013885	-0.016937	0.009003	0.053558	-0.31494	0.012512	0.056915	0.007019	0.019226	-0.21362	0.016937	0.025635	0.011444	0.38177	0.50461	0.007324	-0.02594	-0.008087	0.14923	-0.015411	-0.11566	0.008545	0.30563	-0.002747	-0.040283	-0.14603	-0.000305	0.005951
36.344	0.003815	-0.11643	-0.09201	0.010986	-0.007935	-0.021667	-0.019684	0.014191	-0.32577	-0.012817	0.062256	0.005341	0.024872	-0.25574	-0.47485	0.01297	0.008392	0.30975	0.035248	0.029755	-0.025024	0.001068	0.13809	-0.14893	-0.16953	0	0.30823	-0.004578	0.03418	-0.13031	-0.003357	-0.000916
36.345	0.001373	-0.1651	-0.092316	0.008392	-0.011597	-0.043793	-0.020599	0.012054	-0.33752	-0.002747	0.018463	-0.000305	0.052032	-0.095673	-0.33203	0.003815	0.010681	0.1561	0.060425	0.097656	-0.032196	-0.018005	-0.1268	-0.23239	-0.1088	-0.001526	0.05127	-0.010986	0.16937	-0.13382	0.006104	-0.010681
36.346	0.003357	-0.1503	-0.058899	0.040588	-0.00824	-0.016479	-0.043945	0.006714	-0.33539	-0.025787	-0.037384	-0.001984	0.11215	0.00946	-0.019073	0.003204	0.00061	0.12466	0.011597	0.15793	-0.019684	0.006714	-0.17578	-0.1001	0.14694	-0.011292	-0.15793	-0.006866	-0.47333	-0.11185	-0.002136	-0.016937
36.347	0.005188	-0.17319	-0.061646	0.001068	-0.011139	-0.033112	-0.067444	0.003357	-0.35492	-0.029449	0.001221	0.000305	0.091248	0.041046	-0.049438	0.000153	-0.004425	0.089874	0.086823	0.18936	-0.008392	0.019989	0.048981	0.14191	0.30807	-0.008545	-0.040283	-0.00824	-0.38513	-0.10819	-0.003204	-0.009918
36.348	-0.001068	-0.19821	-0.047913	-0.019226	-0.000916	-0.032196	-0.037231	0.005188	-0.39475	-0.013123	0.031738	-0.006104	0.034943	0.005341	0.039368	0.004425	-0.008545	0.028992	0.10986	0.071564	-0.016632	0.030365	0.008698	-0.024261	0.19302	-0.007019	-0.17212	-0.007324	0.13931	-0.043488	-0.000763	-0.021362
36.349	0.001678	-0.26199	-0.071106	-0.019531	-0.007324	-0.039978	-0.047455	0.007935	-0.42099	-0.022583	-0.028076	-0.006104	0.082703	-0.041962	-0.13275	0.006561	0.000763	-0.1088	-0.16678	-0.015106	-0.01358	-0.00061	-0.11856	-0.020294	0.2034	-0.005798	-0.23025	-0.00946	0.21774	-0.13336	-0.003052	-0.014496
36.35	-0.003357	-0.27359	-0.094604	0.009613	-0.00473	-0.059662	-0.024414	-0.004578	-0.46951	-0.049438	-0.059814	-0.00351	0.13504	-0.060272	-0.10239	0.01297	0.010681	-0.17014	-0.032196	-0.1593	-0.025482	-0.007782	-0.18494	-0.023193	0.10178	-0.005341	-0.36636	-0.006256	0.19073	-0.014343	-0.003357	-0.007324
36.351	-0.005493	-0.30701	-0.097656	0.011597	-0.003204	-0.088043	-0.015717	-0.005493	-0.52216	-0.063782	-0.055695	-0.002289	0.11749	-0.02655	-0.072784	0.002899	0.02182	-0.26169	0.095367	-0.12863	-0.034485	-0.008698	-0.19089	-0.003357	0.032043	-0.004883	-0.62347	-0.002899	0.2385	0.046844	-0.003357	-0.003052
36.352	-0.00824	-0.27252	-0.10574	0.022125	-0.00351	-0.062103	-0.032654	-0.00061	-0.57907	-0.052185	0.033264	-0.01358	0.059662	0.023804	0.048218	-0.005188	0.026703	-0.35416	0.97931	-0.053864	-0.036469	-0.020142	-0.28641	-0.13779	-0.084686	-0.00061	-0.18082	-0.005341	-0.09903	-0.050354	-0.00061	-0.00885
36.353	-0.005341	-0.30304	-0.10025	0.033417	-0.003357	-0.063934	-0.004272	-0.002899	-0.67551	-0.037079	0.070343	-0.007935	0.063477	0.159	0.15503	0.005646	0.02182	-0.43686	0.28854	0.15808	-0.03479	-0.010376	-0.32486	-0.19272	-0.072937	0.00061	0.43106	-0.004578	-0.56442	-0.18372	-0.00412	-0.009308
36.354	-0.002441	-0.35904	-0.064087	0.01709	-0.001373	-0.072021	-0.014343	0.00473	-0.76004	-0.035553	0.074158	-0.003052	0.11139	0.17014	0.086975	0.016174	0.005035	-0.52734	-0.18417	0.21423	-0.029297	-0.011902	-0.14999	0.1535	0.1149	0.020905	1.0892	0.001678	0.20584	-0.29236	-0.002136	-0.000305
36.355	-0.007782	-0.34744	-0.009613	-0.008545	-0.005493	-0.059814	-0.021515	-0.00412	-0.7634	-0.033112	-0.099335	-0.00412	0.077057	0.060577	-0.007324	0.019989	0.015259	-0.41138	-0.16098	0.072327	-0.040283	-0.046539	0.31754	0.24399	0.002899	0.042725	1.4694	0.003967	0.73242	-0.28519	-0.004578	0.000916
36.356	0.008698	-0.34332	-0.019531	-0.018616	-0.007477	-0.067902	-0.032959	-0.000153	-0.66711	-0.033264	-0.18951	0.004883	0.1207	-0.035553	-0.012512	0.066223	0.014648	-0.37979	-0.22812	0.036621	-0.037842	-0.029755	0.35965	0.060272	-0.04837	0.006714	-0.24353	-0.002747	0.28809	-0.041199	-0.003052	-0.002747
36.357	-0.00061	-0.30289	-0.028534	-0.006714	-0.00351	-0.075073	-0.062256	0.005188	-0.5484	0.02655	-0.02243	-0.006561	0.052795	-0.070801	0.19959	0.1532	0.011292	-0.35477	-0.19424	-0.029907	-0.03891	-0.009155	0.36575	-0.11887	-0.12558	-0.008545	-0.84946	-0.013733	-0.11627	0.018005	-0.00061	-0.010376
36.358	0.005035	-0.23834	-0.059204	0.00412	-0.001373	-0.065613	-0.069733	-0.002899	-0.44556	0.041351	0.026703	-0.006409	-0.0383	-0.084534	0.26886	-0.40741	0.012207	-0.36697	-0.095673	-0.037384	-0.02533	-0.0354	0.38391	-0.215	-0.26108	-0.014496	-0.61752	-0.005951	-0.00824	0.010986	0.000153	-0.00824
36.359	0.005951	-0.20172	-0.08255	0.008545	0.001831	-0.058899	-0.06958	0.000305	-0.34363	0.006714	-0.038147	0.000458	-0.044403	-0.10483	0.045624	0.063477	0.021515	-0.3154	0.36728	-0.042419	-0.044861	-0.056458	0.22034	-0.22781	-0.23254	-0.019379	-0.42435	-0.003815	0.038147	0.14801	-0.002441	-0.016479
36.36	0.015564	-0.27206	-0.077057	-0.003967	0.001984	-0.060272	-0.059204	0.003052	-0.2092	-0.052032	-0.006409	0.002747	-0.059967	-0.17303	0.027771	0.11108	0.004272	-0.29816	0.44434	-0.059204	-0.037231	-0.040131	-0.17456	-0.17532	-0.008545	-0.018311	-0.14633	-0.004425	-0.027313	0.24139	-0.001526	-0.020447
36.361	0.012054	-0.31311	-0.11597	0.026855	-0.006561	-0.063629	-0.070038	0.001678	-0.095062	-0.11658	-0.030365	-0.007324	-0.044861	-0.14648	0.085602	0.036011	0.00412	-0.31693	0.53879	-0.056	-0.0354	-0.03418	-0.42893	-0.011139	0.25436	-0.009766	-0.1236	-0.010223	-0.008087	0.42221	-0.002747	-0.018463
36.362	0.020905	-0.29984	-0.06897	0.001068	-0.004272	-0.059967	-0.0737	-0.005798	-0.001678	-0.061646	-0.053864	0.010376	-0.006714	-0.12421	0.10483	0.020447	-0.009155	-0.2388	0.51895	-0.06546	-0.017395	-0.015717	-0.35416	-0.019379	0.38101	-0.003204	-0.088043	-0.00824	0.032196	0.45334	-0.001678	-0.016785
36.363	0.019226	-0.31052	-0.059052	-0.016022	-0.000305	-0.07019	-0.074768	-0.002899	0.074768	-0.05661	-0.025482	-0.007172	0.027161	-0.07843	0.15442	0.017242	0.007629	-0.37476	0.45197	-0.21515	-0.026245	0.022278	0.017853	0.011139	0.26886	-0.006866	-0.092316	-0.006409	0.06897	0.37766	-0.004578	-0.012665
36.364	0.011597	-0.32181	-0.091553	-0.001831	0.011597	-0.050812	-0.079651	-0.008545	0.1294	-0.093384	-0.059509	-0.006866	0.0383	0.014496	0.10788	0.013885	0.022125	-0.47058	-0.53635	-0.18066	-0.019531	-0.002747	0.41687	0.067596	0.30487	-0.010071	-0.14328	-0.007172	0.036163	0.16983	-0.003357	-0.008392
36.365	0.017853	-0.32669	-0.11643	0.00061	0.009308	-0.048218	-0.08728	-0.000458	0.15656	-0.10391	-0.054321	0.006714	0.084839	-0.0354	-0.027466	0.005035	0.006256	-0.45929	-0.82306	-0.065308	-0.013885	0.026398	0.37308	0.013428	0.26169	-0.014496	-0.16571	-0.000916	0.029297	-0.11673	-0.002594	-0.006256
36.366	0.011597	-0.30151	-0.121	0.010681	-0.000458	-0.048981	-0.075989	-0.007935	0.20554	-0.10574	0.14252	-0.006561	0.069885	-0.047455	0.083313	0.005951	-0.00412	-0.48767	-0.68115	0.14389	-0.02121	-0.009003	0.015106	-0.20874	0.33035	-0.006866	-0.056152	-0.002136	0.049286	-0.35431	-0.004578	-0.007324
36.367	0.001373	-0.23636	-0.062866	0.009766	0.002441	-0.03479	-0.072021	-0.001068	0.23895	-0.079193	0.14069	-0.003815	0.040588	-0.034637	-0.20401	0.014954	-0.013733	-0.47409	-0.54718	0.29083	-0.006409	-0.000916	-0.31906	-0.30716	0.2623	-0.0177	-0.013123	-0.003204	0.021362	-0.4303	0.001526	-0.005646
36.368	0.011139	-0.24063	-0.00946	0.032654	0.009003	-0.019531	-0.090027	-0.000305	0.27222	-0.050354	0.082703	0.006256	0.029602	-0.082855	-0.25955	0.003204	-0.013885	-0.41794	-0.41672	0.20309	0.002441	-0.020142	-0.36926	0.057068	0.37888	-0.014954	0.068207	-0.003815	-0.04715	-0.29892	-0.000916	-0.007782
